<svg data-name="6" xmlns="http://www.w3.org/2000/svg" viewBox="0 0 295.9 525.26">
  <title>
    blond
  </title>
  <path d="M2.09,521.68l9.37-62.41s2.41-18.48,22.77-17.14l-4.55,30.4h0s6.56-6.83,18.62-7.23,17,10.31,17,10.31,7.1,13.39-3.48,33.62c-7,13.47-19.09,14.88-26.35,14.32a14.7,14.7,0,0,1-10.76-5.81,8.84,8.84,0,0,1-1.06-1.81h-1l-0.19,6.24-20.37.09v-0.58Z" transform="translate(-1.97 .13)" fill="none" stroke="#000" stroke-miterlimit="10" stroke-width=".25"/>
  <path d="M34 479.78a9.57 9.57 0 0 1 9.68 0c2.38 1.5 4.68 4.46 4.37 10.36-.62 11.78-5.58 16-5.58 16s-3.21 3.63-7.59 3.63a8.8 8.8 0 0 1-5-1.79 9 9 0 0 1-3.52-5.43 21.46 21.46 0 0 1 .09-9.88c1.76-6.75 3.63-9 3.63-9A13.88 13.88 0 0 1 34 479.78zM67.67 521.68l8.2-62.16a16.63 16.63 0 0 1 1.68-5.5c2.41-4.65 8.39-12.46 21.21-12L88.09 521.68H67.67zM125.25 478.91a10.43 10.43 0 0 1 10.54 0c2.59 1.63 5.1 4.86 4.77 11.28-.68 12.84-6.08 17.47-6.08 17.47s-3.5 4-8.26 4a9.58 9.58 0 0 1-5.46-2 9.75 9.75 0 0 1-3.84-5.92A23.37 23.37 0 0 1 117 493c1.93-7.43 3.93-9.88 3.93-9.88A15.12 15.12 0 0 1 125.25 478.91z" transform="translate(-1.97 .13)" fill="none" stroke="#000" stroke-miterlimit="10" stroke-width=".25"/>
  <path d="M132.81 464.09s29.34-1.54 28.44 25.86-27.41 33.73-27.41 33.73S93.94 534 95.09 497.29C95.09 497.29 95.43 465.95 132.81 464.09zM161.27 521.68l4.82-35.35a22.2 22.2 0 0 1 4.62-11c3.41-4.23 9.08-8.82 17.3-8l-1.55 10.17s5.76-12.56 22.91-12.14a25.52 25.52 0 0 1 7.41 1.18 14.16 14.16 0 0 1 9.34 15.2l-4.81 40.54h-20.8l4.34-32.07c.56-4.13-2.37-8.16-6.52-8.36a12.55 12.55 0 0 0-1.47 0 12.72 12.72 0 0 0-8.67 4.29 8.47 8.47 0 0 0-2 4.44l-4.75 31.69H161.27v-.59zM267.36 515.53s-7.21 10.89-23 6.75c-7.89-2.07-11.68-7.61-13.49-12.63a27.39 27.39 0 0 1-1-14.43c1.46-7.73 5.77-22.45 17.8-28 16.65-7.7 25.34 5.09 25.34 5.09l1.21-11.37a19.67 19.67 0 0 1 4.91-11.13c3.79-4.19 10-8.76 18.59-7.57l-10.93 80H266.24z" transform="translate(-1.97 .13)" fill="none" stroke="#000" stroke-miterlimit="10" stroke-width=".25"/>
  <path d="M257.51 480.15a9.57 9.57 0 0 1 9.68 0c2.38 1.5 4.68 4.46 4.37 10.36-.62 11.78-5.58 16-5.58 16s-3.21 3.63-7.59 3.63a8.8 8.8 0 0 1-5-1.79 9 9 0 0 1-3.52-5.43A21.46 21.46 0 0 1 250 493c1.77-6.82 3.61-9.07 3.61-9.07A13.88 13.88 0 0 1 257.51 480.15zM2.09 434.68l9.37-62.41s2.41-18.48 22.77-17.14l-4.55 30.4h0s6.56-6.83 18.62-7.23 17 10.31 17 10.31 7.1 13.39-3.48 33.62c-7 13.47-19.09 14.88-26.35 14.32a14.7 14.7 0 0 1-10.76-5.81 8.84 8.84 0 0 1-1.06-1.81h-1l-.19 6.24-20.37.09v-.58z" transform="translate(-1.97 .13)" fill="none" stroke="#000" stroke-miterlimit="10" stroke-width=".25"/>

  <path d="M34 392.78a9.57 9.57 0 0 1 9.68 0c2.38 1.5 4.68 4.46 4.37 10.36-.62 11.78-5.58 16-5.58 16s-3.21 3.63-7.59 3.63a8.8 8.8 0 0 1-5-1.79 9 9 0 0 1-3.52-5.43 21.46 21.46 0 0 1 .09-9.88c1.76-6.75 3.63-9 3.63-9A13.88 13.88 0 0 1 34 392.78zM67.67 434.68l8.2-62.16a16.63 16.63 0 0 1 1.68-5.5c2.41-4.65 8.39-12.46 21.21-12L88.09 434.68H67.67zM125.25 391.91a10.43 10.43 0 0 1 10.54 0c2.59 1.63 5.1 4.86 4.77 11.28-.68 12.84-6.08 17.47-6.08 17.47s-3.5 4-8.26 4a9.58 9.58 0 0 1-5.46-2 9.75 9.75 0 0 1-3.84-5.92A23.37 23.37 0 0 1 117 406c1.93-7.43 3.93-9.88 3.93-9.88A15.12 15.12 0 0 1 125.25 391.91z" transform="translate(-1.97 .13)" fill="none" stroke="#000" stroke-miterlimit="10" stroke-width=".25"/>
  <path d="M132.81 377.09s29.34-1.54 28.44 25.86-27.41 33.73-27.41 33.73S93.94 447 95.09 410.29C95.09 410.29 95.43 378.95 132.81 377.09zM161.27 434.68l4.82-35.35a22.2 22.2 0 0 1 4.62-11c3.41-4.23 9.08-8.82 17.3-8l-1.55 10.17s5.76-12.56 22.91-12.14a25.52 25.52 0 0 1 7.41 1.18 14.16 14.16 0 0 1 9.34 15.2l-4.81 40.54h-20.8l4.34-32.07c.56-4.13-2.37-8.16-6.52-8.36a12.55 12.55 0 0 0-1.47 0 12.72 12.72 0 0 0-8.67 4.29 8.47 8.47 0 0 0-2 4.44l-4.75 31.69H161.27v-.59zM267.36 428.53s-7.21 10.89-23 6.75c-7.89-2.07-11.68-7.61-13.49-12.63a27.39 27.39 0 0 1-1-14.43c1.46-7.73 5.77-22.45 17.8-28 16.65-7.7 25.34 5.09 25.34 5.09l1.21-11.37a19.67 19.67 0 0 1 4.91-11.13c3.79-4.19 10-8.76 18.59-7.57l-10.93 80H266.24z" transform="translate(-1.97 .13)" fill="none" stroke="#000" stroke-miterlimit="10" stroke-width=".25"/>
  <path d="M257.51 393.15a9.57 9.57 0 0 1 9.68 0c2.38 1.5 4.68 4.46 4.37 10.36-.62 11.78-5.58 16-5.58 16s-3.21 3.63-7.59 3.63a8.8 8.8 0 0 1-5-1.79 9 9 0 0 1-3.52-5.43A21.46 21.46 0 0 1 250 406c1.77-6.82 3.61-9.07 3.61-9.07A13.88 13.88 0 0 1 257.51 393.15zM2.09 344.68l9.37-62.41s2.41-18.48 22.77-17.14l-4.55 30.4h0s6.56-6.83 18.62-7.23 17 10.31 17 10.31 7.1 13.39-3.48 33.62c-7 13.47-19.09 14.88-26.35 14.32a14.7 14.7 0 0 1-10.76-5.81 8.84 8.84 0 0 1-1.06-1.81h-1l-.19 6.24-20.37.09v-.58z" transform="translate(-1.97 .13)" fill="none" stroke="#000" stroke-miterlimit="10" stroke-width=".25"/>

  <path d="M34 302.78a9.57 9.57 0 0 1 9.68 0c2.38 1.5 4.68 4.46 4.37 10.36-.62 11.78-5.58 16-5.58 16s-3.21 3.63-7.59 3.63a8.8 8.8 0 0 1-5-1.79 9 9 0 0 1-3.52-5.43 21.46 21.46 0 0 1 .09-9.88c1.76-6.75 3.63-9 3.63-9A13.88 13.88 0 0 1 34 302.78zM67.67 344.68l8.2-62.16a16.63 16.63 0 0 1 1.68-5.5c2.41-4.65 8.39-12.46 21.21-12L88.09 344.68H67.67zM125.25 301.91a10.43 10.43 0 0 1 10.54 0c2.59 1.63 5.1 4.86 4.77 11.28-.68 12.84-6.08 17.47-6.08 17.47s-3.5 4-8.26 4a9.58 9.58 0 0 1-5.46-2 9.75 9.75 0 0 1-3.84-5.92A23.37 23.37 0 0 1 117 316c1.93-7.43 3.93-9.88 3.93-9.88A15.12 15.12 0 0 1 125.25 301.91z" transform="translate(-1.97 .13)" fill="none" stroke="#000" stroke-miterlimit="10" stroke-width=".25"/>
  <path d="M132.81 287.09s29.34-1.54 28.44 25.86-27.41 33.73-27.41 33.73S93.94 357 95.09 320.29C95.09 320.29 95.43 288.95 132.81 287.09zM161.27 344.68l4.82-35.35a22.2 22.2 0 0 1 4.62-11c3.41-4.23 9.08-8.82 17.3-8l-1.55 10.17s5.76-12.56 22.91-12.14a25.52 25.52 0 0 1 7.41 1.18 14.16 14.16 0 0 1 9.34 15.2l-4.81 40.54h-20.8l4.34-32.07c.56-4.13-2.37-8.16-6.52-8.36a12.55 12.55 0 0 0-1.47 0 12.72 12.72 0 0 0-8.67 4.29 8.47 8.47 0 0 0-2 4.44l-4.75 31.69H161.27v-.59zM267.36 338.53s-7.21 10.89-23 6.75c-7.89-2.07-11.68-7.61-13.49-12.63a27.39 27.39 0 0 1-1-14.43c1.46-7.73 5.77-22.45 17.8-28 16.65-7.7 25.34 5.09 25.34 5.09l1.21-11.37a19.67 19.67 0 0 1 4.91-11.13c3.79-4.19 10-8.76 18.59-7.57l-10.93 80H266.24z" transform="translate(-1.97 .13)" fill="none" stroke="#000" stroke-miterlimit="10" stroke-width=".25"/>
  <path d="M257.51 303.15a9.57 9.57 0 0 1 9.68 0c2.38 1.5 4.68 4.46 4.37 10.36-.62 11.78-5.58 16-5.58 16s-3.21 3.63-7.59 3.63a8.8 8.8 0 0 1-5-1.79 9 9 0 0 1-3.52-5.43A21.46 21.46 0 0 1 250 316c1.77-6.82 3.61-9.07 3.61-9.07A13.88 13.88 0 0 1 257.51 303.15zM2.09 257.68l9.37-62.41s2.41-18.48 22.77-17.14l-4.55 30.4h0s6.56-6.83 18.62-7.23 17 10.31 17 10.31 7.1 13.39-3.48 33.62c-7 13.47-19.09 14.88-26.35 14.32a14.7 14.7 0 0 1-10.76-5.81 8.84 8.84 0 0 1-1.06-1.81h-1l-.19 6.24-20.37.09v-.58z" transform="translate(-1.97 .13)" fill="none" stroke="#000" stroke-miterlimit="10" stroke-width=".25"/>

  <path d="M34 215.78a9.57 9.57 0 0 1 9.68 0c2.38 1.5 4.68 4.46 4.37 10.36-.62 11.78-5.58 16-5.58 16s-3.21 3.63-7.59 3.63a8.8 8.8 0 0 1-5-1.79 9 9 0 0 1-3.52-5.43 21.46 21.46 0 0 1 .09-9.88c1.76-6.75 3.63-9 3.63-9A13.88 13.88 0 0 1 34 215.78zM67.67 257.68l8.2-62.16a16.63 16.63 0 0 1 1.68-5.5c2.41-4.65 8.39-12.46 21.21-12L88.09 257.68H67.67zM125.25 214.91a10.43 10.43 0 0 1 10.54 0c2.59 1.63 5.1 4.86 4.77 11.28-.68 12.84-6.08 17.47-6.08 17.47s-3.5 4-8.26 4a9.58 9.58 0 0 1-5.46-2 9.75 9.75 0 0 1-3.84-5.92A23.37 23.37 0 0 1 117 229c1.93-7.43 3.93-9.88 3.93-9.88A15.12 15.12 0 0 1 125.25 214.91z" transform="translate(-1.97 .13)" fill="none" stroke="#000" stroke-miterlimit="10" stroke-width=".25"/>
  <path d="M132.81 200.09s29.34-1.54 28.44 25.86-27.41 33.73-27.41 33.73S93.94 270 95.09 233.29C95.09 233.29 95.43 201.95 132.81 200.09zM161.27 257.68l4.82-35.35a22.2 22.2 0 0 1 4.62-11c3.41-4.23 9.08-8.82 17.3-8l-1.55 10.17s5.76-12.56 22.91-12.14a25.52 25.52 0 0 1 7.41 1.18 14.16 14.16 0 0 1 9.34 15.2l-4.81 40.54h-20.8l4.34-32.07c.56-4.13-2.37-8.16-6.52-8.36a12.55 12.55 0 0 0-1.47 0 12.72 12.72 0 0 0-8.67 4.29 8.47 8.47 0 0 0-2 4.44l-4.75 31.69H161.27v-.59zM267.36 251.53s-7.21 10.89-23 6.75c-7.89-2.07-11.68-7.61-13.49-12.63a27.39 27.39 0 0 1-1-14.43c1.46-7.73 5.77-22.45 17.8-28 16.65-7.7 25.34 5.09 25.34 5.09l1.21-11.37a19.67 19.67 0 0 1 4.91-11.13c3.79-4.19 10-8.76 18.59-7.57l-10.93 80H266.24z" transform="translate(-1.97 .13)" fill="none" stroke="#000" stroke-miterlimit="10" stroke-width=".25"/>
  <path d="M257.51 216.15a9.57 9.57 0 0 1 9.68 0c2.38 1.5 4.68 4.46 4.37 10.36-.62 11.78-5.58 16-5.58 16s-3.21 3.63-7.59 3.63a8.8 8.8 0 0 1-5-1.79 9 9 0 0 1-3.52-5.43A21.46 21.46 0 0 1 250 229c1.77-6.82 3.61-9.07 3.61-9.07A13.88 13.88 0 0 1 257.51 216.15zM2.09 166.68l9.37-62.41s2.41-18.48 22.77-17.14l-4.55 30.4h0s6.56-6.83 18.62-7.23 17 10.31 17 10.31 7.1 13.39-3.48 33.62c-7 13.47-19.09 14.88-26.35 14.32a14.7 14.7 0 0 1-10.76-5.81 8.84 8.84 0 0 1-1.06-1.81h-1l-.19 6.24-20.37.09v-.58z" transform="translate(-1.97 .13)" fill="none" stroke="#000" stroke-miterlimit="10" stroke-width=".25"/>

  <path d="M34 124.78a9.57 9.57 0 0 1 9.68 0c2.38 1.5 4.68 4.46 4.37 10.36-.62 11.78-5.58 16-5.58 16s-3.21 3.63-7.59 3.63a8.8 8.8 0 0 1-5-1.79 9 9 0 0 1-3.52-5.43 21.46 21.46 0 0 1 .09-9.88c1.76-6.75 3.63-9 3.63-9A13.88 13.88 0 0 1 34 124.78zM67.67 166.68l8.2-62.16A16.63 16.63 0 0 1 77.55 99C80 94.37 85.94 86.56 98.76 87L88.09 166.68H67.67zM125.25 123.91a10.43 10.43 0 0 1 10.54 0c2.59 1.63 5.1 4.86 4.77 11.28-.68 12.84-6.08 17.47-6.08 17.47s-3.5 4-8.26 4a9.58 9.58 0 0 1-5.46-2 9.75 9.75 0 0 1-3.84-5.92A23.37 23.37 0 0 1 117 138c1.93-7.43 3.93-9.88 3.93-9.88A15.12 15.12 0 0 1 125.25 123.91z" transform="translate(-1.97 .13)" fill="none" stroke="#000" stroke-miterlimit="10" stroke-width=".25"/>
  <path d="M132.81 109.09s29.34-1.54 28.44 25.86-27.41 33.73-27.41 33.73S93.94 179 95.09 142.29C95.09 142.29 95.43 110.95 132.81 109.09zM161.27 166.68l4.82-35.35a22.2 22.2 0 0 1 4.62-11c3.41-4.23 9.08-8.82 17.3-8l-1.55 10.17s5.76-12.56 22.91-12.14a25.52 25.52 0 0 1 7.41 1.18 14.16 14.16 0 0 1 9.34 15.2l-4.81 40.54h-20.8l4.34-32.07c.56-4.13-2.37-8.16-6.52-8.36a12.55 12.55 0 0 0-1.47 0 12.72 12.72 0 0 0-8.67 4.29 8.47 8.47 0 0 0-2 4.44l-4.75 31.69H161.27v-.59zM267.36 160.53s-7.21 10.89-23 6.75c-7.89-2.07-11.68-7.61-13.49-12.63a27.39 27.39 0 0 1-1-14.43c1.46-7.73 5.77-22.45 17.8-28 16.65-7.7 25.34 5.09 25.34 5.09l1.21-11.37a19.67 19.67 0 0 1 4.91-11.13c3.79-4.19 10-8.76 18.59-7.57l-10.93 80H266.24z" transform="translate(-1.97 .13)" fill="none" stroke="#000" stroke-miterlimit="10" stroke-width=".25"/>
  <path d="M257.51 125.15a9.57 9.57 0 0 1 9.68 0c2.38 1.5 4.68 4.46 4.37 10.36-.62 11.78-5.58 16-5.58 16s-3.21 3.63-7.59 3.63a8.8 8.8 0 0 1-5-1.79 9 9 0 0 1-3.52-5.43A21.46 21.46 0 0 1 250 138c1.77-6.82 3.61-9.07 3.61-9.07A13.88 13.88 0 0 1 257.51 125.15zM2.09 79.68l9.37-62.41S13.87-1.21 34.23.13l-4.55 30.4h0S36.24 23.7 48.3 23.3s17 10.31 17 10.31S72.4 47 61.82 67.23c-7 13.47-19.09 14.88-26.35 14.32a14.7 14.7 0 0 1-10.76-5.81 8.84 8.84 0 0 1-1.06-1.81h-1l-.19 6.24-20.37.09V79.68z" transform="translate(-1.97 .13)" fill="none" stroke="#000" stroke-miterlimit="10" stroke-width=".25"/>

  <path d="M34 37.78a9.57 9.57 0 0 1 9.68 0c2.38 1.5 4.68 4.46 4.37 10.36-.62 11.78-5.58 16-5.58 16s-3.21 3.63-7.59 3.63a8.8 8.8 0 0 1-5-1.79 9 9 0 0 1-3.52-5.43 21.46 21.46 0 0 1 .09-9.88c1.76-6.75 3.63-9 3.63-9A13.88 13.88 0 0 1 34 37.78zM67.67 79.68l8.2-62.16A16.63 16.63 0 0 1 77.55 12C80 7.37 85.94-.44 98.76 0L88.09 79.68H67.67zM125.25 36.91a10.43 10.43 0 0 1 10.54 0c2.59 1.63 5.1 4.86 4.77 11.28-.68 12.84-6.08 17.47-6.08 17.47s-3.5 4-8.26 4a9.58 9.58 0 0 1-5.46-2 9.75 9.75 0 0 1-3.84-5.92A23.37 23.37 0 0 1 117 51C119 43.55 121 41.1 121 41.1A15.12 15.12 0 0 1 125.25 36.91z" transform="translate(-1.97 .13)" fill="none" stroke="#000" stroke-miterlimit="10" stroke-width=".25"/>
  <path d="M132.81 22.09s29.34-1.54 28.44 25.86-27.41 33.73-27.41 33.73S93.94 92 95.09 55.29C95.09 55.29 95.43 23.95 132.81 22.09zM161.27 79.68l4.82-35.35a22.2 22.2 0 0 1 4.62-11c3.41-4.23 9.08-8.82 17.3-8L186.46 35.5s5.76-12.56 22.91-12.14a25.52 25.52 0 0 1 7.41 1.18 14.16 14.16 0 0 1 9.34 15.2l-4.81 40.54h-20.8l4.34-32.07c.56-4.13-2.37-8.16-6.52-8.36a12.55 12.55 0 0 0-1.47 0 12.72 12.72 0 0 0-8.67 4.29 8.47 8.47 0 0 0-2 4.44l-4.75 31.69H161.27V79.68zM267.36 73.53s-7.21 10.89-23 6.75c-7.89-2.07-11.68-7.61-13.49-12.63a27.39 27.39 0 0 1-1-14.43c1.46-7.73 5.77-22.45 17.8-28 16.65-7.7 25.34 5.09 25.34 5.09l1.21-11.37a19.67 19.67 0 0 1 4.91-11.13c3.79-4.19 10-8.76 18.59-7.57l-10.93 80H266.24z" transform="translate(-1.97 .13)" fill="none" stroke="#000" stroke-miterlimit="10" stroke-width=".25"/>
  <path d="M257.51,38.15a9.57,9.57,0,0,1,9.68,0c2.38,1.5,4.68,4.46,4.37,10.36-0.62,11.78-5.58,16-5.58,16s-3.21,3.63-7.59,3.63a8.8,8.8,0,0,1-5-1.79,9,9,0,0,1-3.52-5.43A21.46,21.46,0,0,1,250,51c1.77-6.82,3.61-9.07,3.61-9.07A13.88,13.88,0,0,1,257.51,38.15Z" transform="translate(-1.97 .13)" fill="none" stroke="#000" stroke-miterlimit="10" stroke-width=".25"/>
</svg>
